<?xml version="1.0" standalone="no"?>
<!DOCTYPE svg PUBLIC "-//W3C//DTD SVG 20010904//EN"
 "http://www.w3.org/TR/2001/REC-SVG-20010904/DTD/svg10.dtd">
<svg version="1.0" xmlns="http://www.w3.org/2000/svg"
 width="600.000000pt" height="328.000000pt" viewBox="0 0 600.000000 328.000000"
 preserveAspectRatio="xMidYMid meet">
<g transform="translate(0.000000,328.000000) scale(0.100000,-0.100000)"
fill="#000000" stroke="none">
<path d="M2945 2681 c-11 -5 -28 -18 -38 -28 -10 -11 -146 -245 -303 -519
-157 -275 -289 -503 -294 -508 -5 -5 -51 -10 -102 -10 -152 -2 -129 25 -367
-446 -174 -346 -204 -411 -203 -448 0 -50 21 -85 65 -112 30 -19 53 -20 440
-20 372 0 412 2 439 18 27 16 124 176 422 699 l41 73 368 -3 369 -2 138 -270
c77 -148 139 -273 140 -278 0 -4 -113 -6 -252 -5 l-252 3 -44 75 c-25 41 -83
142 -130 223 l-84 148 -96 -3 -95 -3 -23 -36 -23 -37 153 -263 c187 -323 174
-303 207 -323 24 -14 77 -16 436 -16 387 0 410 1 440 20 44 27 65 62 65 113 1
38 -23 92 -162 368 -227 452 -246 486 -283 506 -37 20 -3 19 -729 16 l-496 -3
-66 -113 c-36 -63 -66 -115 -66 -118 0 -2 45 -3 100 -1 55 2 100 0 100 -5 0
-4 -71 -129 -158 -278 l-157 -270 -253 -3 c-138 -1 -252 1 -252 5 1 5 63 130
140 278 l139 270 93 3 c79 2 98 6 121 25 27 22 56 71 389 654 95 167 175 303
178 303 3 0 83 -137 178 -303 95 -167 178 -311 185 -321 11 -14 29 -16 140
-14 l127 3 -146 255 c-80 140 -198 346 -262 458 -63 112 -128 214 -144 228
-31 25 -91 32 -133 15z"/>
</g>
</svg>
